<?xml version="1.0" encoding="utf-8"?>
<!-- Generator: Adobe Illustrator 16.0.0, SVG Export Plug-In . SVG Version: 6.00 Build 0)  -->
<!DOCTYPE svg PUBLIC "-//W3C//DTD SVG 1.1//EN" "http://www.w3.org/Graphics/SVG/1.1/DTD/svg11.dtd">
<svg version="1.1" id="Capa_1" xmlns:serif="http://www.serif.com/"
	 xmlns="http://www.w3.org/2000/svg" xmlns:xlink="http://www.w3.org/1999/xlink" x="0px" y="0px" width="80px" height="80px"
	 viewBox="376.445 264.14 80 80" enable-background="new 376.445 264.14 80 80" xml:space="preserve">
<g>
	<g>
		<path fill="#F3F3F3" d="M387.037,322.738c-3.537-5.467-5.593-11.984-5.593-18.978c0-19.316,15.684-35,35-35
			c19.316,0,35,15.684,35,35c0,19.316-15.684,35-35,35c-6.547,0-12.673-1.801-17.917-4.933l-17.083,5.692L387.037,322.738
			L387.037,322.738z"/>
		<path fill="#00A82D" d="M393.584,319.997c-3.264-4.583-5.184-10.187-5.184-16.236c0-15.477,12.567-28.044,28.044-28.044
			c15.478,0,28.045,12.567,28.045,28.044c0,15.478-12.567,28.041-28.045,28.041c-5.858,0-11.295-1.798-15.798-4.875l-10.544,3.516
			L393.584,319.997z"/>
	</g>
	<path fill="#F3F3F3" d="M408.023,311.042c-4.141-5.063-6.904-11.26-7.77-17.98c-0.232-1.872,0.39-3.75,1.698-5.11
		c1.308-1.36,3.161-2.056,5.04-1.897l0.181,0.019c0,0,2.067,0.553,3.198,0.858c0.449,0.122,0.807,0.457,0.958,0.895
		c0.508,1.511,1.709,5.059,2.276,6.728c0.185,0.542,0.015,1.142-0.42,1.511c-0.858,0.722-2.276,1.916-3.161,2.664
		c-0.476,0.402-0.626,1.068-0.368,1.632c1.027,2.24,2.339,4.332,3.894,6.227c1.599,1.85,3.437,3.496,5.471,4.889
		c0.516,0.351,1.197,0.313,1.673-0.088c0.889-0.745,2.306-1.938,3.161-2.66c0.438-0.369,1.057-0.431,1.562-0.158
		c1.548,0.84,4.841,2.623,6.242,3.382c0.408,0.222,0.681,0.634,0.722,1.094c0.106,1.168,0.306,3.297,0.306,3.297l-0.015,0.182
		c-0.162,1.879-1.161,3.588-2.724,4.646c-1.561,1.061-3.518,1.355-5.323,0.811c-6.528-2.008-12.206-5.824-16.501-10.82
		L408.023,311.042L408.023,311.042z"/>
</g>
</svg>
