<svg width="31" height="22" viewBox="0 0 31 22" fill="none" xmlns="http://www.w3.org/2000/svg">
<path fill-rule="evenodd" clip-rule="evenodd" d="M27.6291 0.663884C28.9569 1.02149 30.0039 2.06828 30.3613 3.39629C31.0254 5.82194 30.9999 10.878 30.9999 10.878C30.9999 10.878 30.9999 15.9084 30.3615 18.3343C30.0039 19.662 28.9571 20.7091 27.6291 21.0664C25.2032 21.705 15.4999 21.705 15.4999 21.705C15.4999 21.705 5.82194 21.705 3.37074 21.0411C2.04274 20.6835 0.995944 19.6365 0.638341 18.3087C0 15.9084 0 10.8525 0 10.8525C0 10.8525 0 5.82194 0.638341 3.39629C0.995708 2.06852 2.06828 0.995944 3.37051 0.638578C5.79639 0 15.4997 0 15.4997 0C15.4997 0 25.2032 0 27.6291 0.663884ZM20.4792 10.8525L12.4102 15.5V6.20508L20.4792 10.8525Z" fill="white"/>
</svg>
