<?xml version="1.0" encoding="UTF-8"?>
<svg id="Capa_1" data-name="Capa 1" xmlns="http://www.w3.org/2000/svg" version="1.1" viewBox="0 0 26 26">
  <defs>
    <style>
      .cls-1 {
        fill: #c5003e;
      }

      .cls-1, .cls-2 {
        stroke-width: 0px;
      }

      .cls-2 {
        fill: #fff;
      }
    </style>
  </defs>
  <circle class="cls-1" cx="13" cy="13" r="13"/>
  <g id="LYbgS2">
    <path class="cls-2" d="M13.9,16.1c0,.9,0,1.9,0,2.8q0,.2-.2.2c-.7,0-1.4,0-2.1,0-.2,0-.2,0-.2-.2,0-1.9,0-3.8,0-5.7q0-.2-.2-.2c-.3,0-.6,0-.8,0-.1,0-.2,0-.2-.2,0-.6,0-1.3,0-1.9,0-.1,0-.2.2-.2.3,0,.6,0,.9,0,.1,0,.2,0,.2-.2,0-.4,0-.9,0-1.3,0-.5.1-.9.3-1.3.4-.7,1-1.1,1.7-1.1.6,0,1.2,0,1.7,0,.2,0,.3,0,.5,0,0,0,.1,0,.1.1,0,.6,0,1.2,0,1.9,0,.1,0,.1-.1.1-.4,0-.7,0-1.1,0,0,0-.2,0-.3,0-.2,0-.3.2-.4.4,0,.4,0,.9,0,1.4,0,.1,0,0,.1,0,.5,0,1.1,0,1.6,0,.2,0,.2,0,.2.2,0,.6-.1,1.2-.2,1.8,0,.1,0,.2-.2.2-.5,0-.9,0-1.4,0-.1,0-.2,0-.2.2,0,1,0,1.9,0,2.9Z"/>
  </g>
</svg>