<?xml version="1.0" encoding="utf-8"?>
<!-- Generator: Adobe Illustrator 16.0.0, SVG Export Plug-In . SVG Version: 6.00 Build 0)  -->
<!DOCTYPE svg PUBLIC "-//W3C//DTD SVG 1.1//EN" "http://www.w3.org/Graphics/SVG/1.1/DTD/svg11.dtd">
<svg version="1.1" id="Capa_1" xmlns="http://www.w3.org/2000/svg" xmlns:xlink="http://www.w3.org/1999/xlink" x="0px" y="0px"
	 width="26px" height="26px" viewBox="0 0 26 26" enable-background="new 0 0 26 26" xml:space="preserve">
<linearGradient id="SVGID_1_" gradientUnits="userSpaceOnUse" x1="12.9995" y1="0.4692" x2="12.9995" y2="25.8879">
	<stop  offset="0" style="stop-color:#2ABCEA"/>
	<stop  offset="1" style="stop-color:#2757A4"/>
</linearGradient>
<path fill="url(#SVGID_1_)" d="M13,0.001c-7.18,0-13,5.821-13,13s5.82,12.998,13,12.998s13-5.819,13-12.998S20.179,0.001,13,0.001z
	 M16.44,12.946h-2.251c0,3.597,0,8.027,0,8.027h-3.337c0,0,0-4.385,0-8.027H9.266v-2.834h1.587V8.275
	c0-1.314,0.624-3.366,3.368-3.366l2.47,0.01v2.753c0,0-1.502,0-1.793,0c-0.294,0-0.708,0.146-0.708,0.771v1.67h2.544L16.44,12.946z"
	/>
</svg>
