<?xml version="1.0" encoding="UTF-8"?>
<svg id="Capa_1" data-name="Capa 1" xmlns="http://www.w3.org/2000/svg" version="1.1" viewBox="0 0 26 26">
  <defs>
    <style>
      .cls-1 {
        fill: #c5003e;
      }

      .cls-1, .cls-2 {
        stroke-width: 0px;
      }

      .cls-2 {
        fill: #fff;
      }
    </style>
  </defs>
  <circle class="cls-1" cx="13" cy="13" r="13"/>
  <g id="YzzQiR">
    <g>
      <path class="cls-2" d="M19.1,9.6v6.8c0,.3-.1.5-.2.8-.4,1.1-1.6,1.9-2.8,1.9-2.1,0-4.2,0-6.2,0-.2,0-.4,0-.6,0-1.4-.3-2.4-1.6-2.4-3,0-2,0-4,0-6,0-.2,0-.3,0-.4.2-1.1.7-1.9,1.7-2.3.3-.2.6-.2,1-.3,2.3,0,4.5,0,6.8,0,0,0,0,0,0,0,1.1.2,1.9.8,2.3,1.8.1.3.2.6.2.9ZM13,18.1c1,0,2,0,3,0,.1,0,.2,0,.4,0,1-.1,1.7-1,1.7-1.9,0-2.1,0-4.1,0-6.2,0-.1,0-.2,0-.3-.2-1-1-1.6-2-1.6-2,0-4,0-6.1,0,0,0-.2,0-.3,0-1,.1-1.7,1-1.7,2,0,2,0,4.1,0,6.1,0,.1,0,.2,0,.4.2,1,1,1.6,2,1.6,1,0,2,0,3,0Z"/>
      <path class="cls-2" d="M16.1,13c0,1.7-1.4,3.1-3.1,3.1-1.7,0-3.1-1.4-3.1-3.1,0-1.7,1.4-3.1,3.1-3.1,1.7,0,3.1,1.4,3.1,3.1ZM13,15.1c1.1,0,2-.9,2-2,0-1.1-.9-2-2-2-1.1,0-2,.9-2,2,0,1.1.9,2,2,2Z"/>
      <path class="cls-2" d="M17.1,9.7c0,.4-.4.8-.8.8-.4,0-.8-.3-.8-.8,0-.4.4-.8.8-.8.4,0,.8.4.8.8Z"/>
    </g>
  </g>
</svg>