<?xml version="1.0" encoding="utf-8"?>
<!-- Generator: Adobe Illustrator 16.0.0, SVG Export Plug-In . SVG Version: 6.00 Build 0)  -->
<!DOCTYPE svg PUBLIC "-//W3C//DTD SVG 1.1//EN" "http://www.w3.org/Graphics/SVG/1.1/DTD/svg11.dtd">
<svg version="1.1" id="Capa_1" xmlns="http://www.w3.org/2000/svg" xmlns:xlink="http://www.w3.org/1999/xlink" x="0px" y="0px"
	 width="105.764px" height="26px" viewBox="0 0 105.764 26" enable-background="new 0 0 105.764 26" xml:space="preserve">
<g>
	<g>
		<path fill="#002E6D" d="M36.857,12.545c0-6.641-8.251-12.053-18.428-12.053c-10.178,0-18.428,5.412-18.428,12.053
			C0.002,12.717,0,13.189,0,13.25C0,20.295,7.211,26,18.426,26c11.286,0,18.432-5.703,18.432-12.748
			C36.857,13.006,36.857,12.863,36.857,12.545z"/>
		<ellipse fill="#FFE900" cx="18.433" cy="12.539" rx="17.718" ry="11.334"/>
		<g>
			<path fill="#FFFFFF" d="M12.549,8.963c-0.01,0.018-0.186,0.201-0.071,0.348c0.28,0.357,1.144,0.563,2.017,0.365
				c0.52-0.115,1.186-0.646,1.832-1.158c0.699-0.557,1.395-1.113,2.092-1.334c0.739-0.236,1.213-0.135,1.525-0.041
				c0.344,0.104,0.746,0.328,1.391,0.813c1.212,0.91,6.088,5.166,6.93,5.902c0.678-0.307,3.693-1.604,7.789-2.508
				c-0.355-2.184-1.684-4.182-3.699-5.818c-2.808,1.18-6.24,1.795-9.596,0.156C22.74,5.68,20.924,4.82,19.132,4.861
				c-2.663,0.063-3.815,1.215-5.037,2.436L12.549,8.963z"/>
			<path fill="#FFFFFF" d="M28.065,14.32c-0.058-0.051-5.732-5.018-7.018-5.984c-0.744-0.557-1.158-0.699-1.593-0.754
				c-0.227-0.029-0.539,0.012-0.758,0.072C18.1,7.816,17.318,8.34,16.623,8.891c-0.719,0.572-1.396,1.111-2.025,1.252
				c-0.803,0.18-1.784-0.033-2.232-0.336c-0.182-0.121-0.309-0.262-0.371-0.406c-0.164-0.383,0.141-0.689,0.191-0.74l1.565-1.695
				c0.182-0.182,0.365-0.363,0.553-0.541c-0.505,0.064-0.972,0.193-1.427,0.32c-0.567,0.16-1.113,0.311-1.666,0.311
				c-0.23,0-1.465-0.201-1.699-0.266c-1.418-0.387-2.661-0.766-4.52-1.633c-2.227,1.658-3.715,3.73-4.145,6.012
				c0.319,0.086,0.835,0.238,1.051,0.287c5.039,1.119,6.607,2.273,6.893,2.516C9.1,13.627,9.543,13.41,10.04,13.41
				c0.558,0,1.06,0.281,1.365,0.713c0.288-0.227,0.687-0.422,1.2-0.422c0.234,0,0.477,0.043,0.722,0.127
				c0.567,0.195,0.861,0.572,1.014,0.916c0.19-0.086,0.425-0.15,0.701-0.148c0.271,0,0.554,0.061,0.838,0.184
				c0.929,0.398,1.073,1.313,0.989,2c0.066-0.008,0.133-0.012,0.2-0.012c1.102,0.002,1.997,0.896,1.997,1.998
				c0,0.342-0.088,0.662-0.238,0.943c0.299,0.168,1.063,0.549,1.734,0.465c0.535-0.068,0.738-0.25,0.812-0.354
				c0.05-0.07,0.103-0.154,0.054-0.213l-1.422-1.58c0,0-0.234-0.221-0.156-0.307c0.08-0.088,0.224,0.039,0.326,0.125
				c0.725,0.604,1.607,1.516,1.607,1.516c0.015,0.01,0.073,0.125,0.4,0.184c0.281,0.051,0.778,0.021,1.123-0.262
				c0.087-0.072,0.174-0.162,0.246-0.254c-0.005,0.004-0.01,0.012-0.016,0.014c0.363-0.465-0.04-0.936-0.04-0.936l-1.659-1.865
				c0,0-0.237-0.219-0.157-0.307c0.072-0.076,0.226,0.039,0.329,0.125c0.525,0.439,1.268,1.186,1.979,1.881
				c0.139,0.104,0.765,0.488,1.593-0.055c0.502-0.33,0.604-0.734,0.589-1.039c-0.034-0.404-0.351-0.693-0.351-0.693l-2.268-2.279
				c0,0-0.238-0.205-0.154-0.309c0.069-0.086,0.225,0.039,0.326,0.125c0.723,0.604,2.678,2.396,2.678,2.396
				c0.027,0.02,0.703,0.5,1.538-0.031c0.299-0.191,0.489-0.479,0.505-0.813C28.475,14.664,28.065,14.32,28.065,14.32z"/>
			<path fill="#FFFFFF" d="M17.069,17.209c-0.352-0.004-0.736,0.205-0.786,0.174c-0.028-0.018,0.021-0.158,0.055-0.24
				c0.033-0.08,0.496-1.475-0.633-1.957c-0.863-0.371-1.391,0.045-1.572,0.234c-0.048,0.049-0.068,0.045-0.074-0.018
				c-0.018-0.25-0.129-0.93-0.875-1.156c-1.065-0.326-1.75,0.416-1.924,0.686c-0.078-0.607-0.592-1.078-1.221-1.08
				c-0.682,0-1.236,0.553-1.237,1.236c0,0.684,0.554,1.236,1.237,1.236c0.332,0.002,0.633-0.131,0.854-0.346
				c0.007,0.008,0.01,0.02,0.006,0.043c-0.052,0.305-0.147,1.416,1.017,1.869c0.467,0.182,0.863,0.047,1.191-0.184
				c0.1-0.07,0.115-0.041,0.101,0.051c-0.042,0.287,0.011,0.898,0.869,1.246c0.653,0.266,1.039-0.006,1.292-0.24
				c0.109-0.102,0.141-0.084,0.146,0.07c0.03,0.828,0.718,1.484,1.552,1.484c0.859,0.002,1.556-0.693,1.557-1.553
				S17.928,17.219,17.069,17.209z"/>
		</g>
		<path fill="#002E6D" d="M28.285,13.727c-1.748-1.527-5.789-5.039-6.883-5.861c-0.625-0.469-1.051-0.719-1.426-0.83
			c-0.168-0.051-0.4-0.107-0.7-0.107c-0.278,0-0.577,0.049-0.89,0.148c-0.707,0.225-1.412,0.783-2.093,1.326L16.259,8.43
			c-0.635,0.504-1.291,1.025-1.787,1.137c-0.217,0.049-0.439,0.074-0.662,0.074c-0.556,0-1.056-0.16-1.243-0.4
			c-0.031-0.039-0.011-0.104,0.062-0.195l0.01-0.012l1.538-1.658c1.204-1.203,2.342-2.34,4.961-2.4
			c0.043-0.002,0.088-0.002,0.131-0.002c1.629,0,3.26,0.73,3.441,0.814c1.529,0.746,3.106,1.125,4.693,1.125
			c1.652,0.002,3.357-0.408,5.15-1.234c-0.199-0.168-0.408-0.332-0.623-0.492c-1.574,0.684-3.076,1.027-4.523,1.027
			c-1.479-0.002-2.957-0.355-4.391-1.057c-0.076-0.035-1.875-0.885-3.748-0.885c-0.049,0-0.099,0-0.147,0.002
			c-2.2,0.051-3.438,0.832-4.272,1.516c-0.811,0.02-1.51,0.217-2.131,0.389c-0.555,0.154-1.035,0.289-1.502,0.289
			c-0.193,0-0.539-0.018-0.57-0.02c-0.538-0.016-3.246-0.68-5.401-1.496c-0.22,0.156-0.432,0.316-0.638,0.48
			c2.25,0.924,4.99,1.637,5.854,1.693c0.241,0.016,0.497,0.043,0.753,0.043c0.572,0,1.143-0.16,1.695-0.314
			c0.326-0.092,0.688-0.191,1.065-0.266c-0.101,0.1-0.202,0.201-0.303,0.303L12.107,8.58c-0.123,0.125-0.389,0.455-0.213,0.863
			c0.069,0.166,0.211,0.322,0.41,0.457c0.373,0.25,1.039,0.42,1.658,0.42c0.234,0,0.457-0.023,0.662-0.068
			c0.654-0.148,1.342-0.695,2.069-1.273c0.58-0.461,1.404-1.045,2.035-1.217c0.176-0.049,0.392-0.078,0.566-0.078
			c0.052,0,0.101,0.002,0.147,0.008c0.416,0.053,0.818,0.195,1.539,0.734c1.281,0.965,6.957,5.93,7.014,5.979
			c0.004,0.004,0.365,0.314,0.34,0.834c-0.014,0.289-0.174,0.547-0.453,0.725c-0.242,0.154-0.492,0.232-0.746,0.232
			c-0.379-0.002-0.64-0.18-0.656-0.191c-0.021-0.016-1.966-1.799-2.682-2.398c-0.113-0.094-0.225-0.18-0.336-0.18
			c-0.061,0-0.113,0.025-0.148,0.07c-0.113,0.139,0.013,0.33,0.162,0.457l2.271,2.283c0.002,0.002,0.282,0.266,0.313,0.615
			c0.019,0.379-0.162,0.695-0.539,0.941c-0.268,0.178-0.539,0.266-0.805,0.266c-0.349,0-0.594-0.158-0.647-0.195l-0.326-0.322
			c-0.596-0.586-1.21-1.191-1.661-1.566c-0.109-0.092-0.227-0.176-0.338-0.176c-0.055,0-0.105,0.021-0.144,0.061
			c-0.052,0.057-0.087,0.16,0.041,0.33c0.053,0.07,0.114,0.127,0.114,0.127l1.658,1.863c0.014,0.016,0.342,0.404,0.037,0.793
			l-0.059,0.074c-0.049,0.057-0.104,0.105-0.154,0.148c-0.282,0.232-0.66,0.258-0.809,0.258c-0.081,0-0.158-0.008-0.226-0.02
			c-0.163-0.029-0.272-0.074-0.325-0.137l-0.021-0.021c-0.09-0.094-0.926-0.947-1.617-1.523c-0.091-0.076-0.205-0.174-0.322-0.174
			c-0.058,0-0.109,0.023-0.149,0.068c-0.138,0.15,0.069,0.373,0.155,0.455l1.414,1.559c-0.002,0.016-0.02,0.047-0.054,0.096
			c-0.051,0.07-0.222,0.242-0.735,0.307c-0.061,0.008-0.125,0.012-0.188,0.012c-0.528,0-1.092-0.258-1.383-0.412
			c0.132-0.279,0.201-0.586,0.201-0.896c0-1.162-0.945-2.109-2.108-2.109c-0.024,0-0.052,0-0.077,0.002
			c0.039-0.531-0.036-1.537-1.068-1.98c-0.297-0.129-0.594-0.195-0.882-0.195c-0.226,0-0.442,0.039-0.647,0.117
			c-0.213-0.416-0.568-0.719-1.031-0.877c-0.256-0.088-0.512-0.133-0.758-0.133c-0.43,0-0.824,0.127-1.178,0.377
			c-0.338-0.42-0.85-0.67-1.389-0.67c-0.47,0-0.923,0.189-1.258,0.521c-0.44-0.336-2.187-1.445-6.858-2.506
			c-0.226-0.051-0.745-0.199-1.063-0.293c-0.053,0.252-0.094,0.508-0.119,0.766c0,0,0.861,0.207,1.031,0.246
			c4.772,1.059,6.35,2.162,6.615,2.369c-0.09,0.217-0.137,0.451-0.137,0.688c-0.001,0.986,0.801,1.789,1.787,1.789
			c0.111,0,0.221-0.008,0.329-0.029c0.148,0.727,0.623,1.275,1.349,1.559c0.212,0.082,0.427,0.123,0.637,0.123
			c0.137,0,0.273-0.018,0.408-0.051c0.133,0.34,0.436,0.766,1.109,1.039c0.236,0.094,0.473,0.145,0.703,0.145
			c0.188,0,0.371-0.033,0.545-0.098c0.324,0.787,1.092,1.309,1.949,1.309c0.568,0,1.113-0.23,1.512-0.641
			c0.34,0.189,1.059,0.531,1.785,0.533c0.094,0,0.182-0.006,0.27-0.018c0.722-0.092,1.058-0.373,1.212-0.592
			c0.027-0.039,0.053-0.08,0.074-0.121c0.171,0.049,0.357,0.088,0.571,0.088c0.395,0,0.772-0.133,1.154-0.412
			c0.375-0.271,0.643-0.658,0.681-0.99c0.001-0.004,0.002-0.01,0.003-0.014c0.125,0.025,0.256,0.039,0.385,0.039
			c0.406,0,0.805-0.127,1.186-0.375c0.735-0.482,0.863-1.113,0.852-1.523c0.129,0.025,0.26,0.041,0.391,0.041
			c0.381,0,0.754-0.115,1.111-0.344c0.455-0.291,0.729-0.736,0.771-1.256c0.028-0.354-0.059-0.709-0.245-1.014
			c1.232-0.531,4.047-1.559,7.363-2.307c-0.02-0.256-0.057-0.51-0.104-0.762C32.027,12.096,29.035,13.393,28.285,13.727z
			 M17.069,20.209c-0.779-0.002-1.412-0.605-1.44-1.377c-0.003-0.066-0.01-0.242-0.158-0.242c-0.061,0-0.114,0.035-0.176,0.092
			c-0.171,0.158-0.389,0.32-0.707,0.32c-0.146,0-0.302-0.033-0.467-0.102c-0.823-0.334-0.834-0.898-0.801-1.125
			c0.009-0.063,0.012-0.125-0.029-0.174l-0.051-0.045h-0.051c-0.043,0-0.086,0.018-0.145,0.059
			c-0.238,0.166-0.466,0.248-0.697,0.248c-0.128,0-0.259-0.025-0.391-0.076c-1.082-0.422-0.997-1.443-0.944-1.752
			c0.009-0.063-0.007-0.111-0.048-0.143l-0.076-0.063l-0.071,0.068c-0.211,0.203-0.487,0.314-0.777,0.314
			c-0.62,0-1.125-0.506-1.124-1.125c0-0.621,0.505-1.125,1.125-1.123c0.561,0,1.039,0.422,1.11,0.98l0.038,0.303l0.166-0.256
			c0.019-0.029,0.473-0.717,1.309-0.717c0.158,0,0.323,0.025,0.488,0.078c0.666,0.203,0.779,0.807,0.797,1.059
			c0.012,0.146,0.115,0.152,0.137,0.152c0.057,0,0.1-0.035,0.129-0.068c0.126-0.131,0.4-0.348,0.828-0.348
			c0.195,0,0.404,0.047,0.62,0.139c1.06,0.455,0.579,1.799,0.573,1.814c-0.092,0.223-0.095,0.32-0.01,0.377l0.043,0.02h0.029
			c0.049,0,0.107-0.02,0.205-0.053c0.145-0.051,0.362-0.125,0.565-0.125h0.001c0.797,0.01,1.445,0.658,1.444,1.445
			C18.514,19.563,17.865,20.209,17.069,20.209z"/>
	</g>
	<path fill="#002E6D" d="M44.273,5.9v5.42h-2.166V6.332c0-2.422,1.219-3.625,3.641-3.625c1.092,0,1.926,0.242,2.535,0.723
		c0.609-0.465,1.443-0.689,2.533-0.689c2.422,0,3.625,1.203,3.609,3.623v4.988h-1.107c-0.705-0.047-1.059-0.385-1.059-1.059V5.932
		c-0.049-0.883-0.529-1.316-1.475-1.316c-0.947,0-1.428,0.434-1.443,1.316v5.389h-2.15V5.9c-0.047-0.883-0.529-1.316-1.475-1.316
		C44.77,4.584,44.289,5.018,44.273,5.9z"/>
	<path fill="#002E6D" d="M64.883,6.975c0.064-2.742,1.42-4.268,4.258-4.268h0.645V4.92l-0.992,0.021
		c-1.186,0-1.744,0.766-1.744,2.002v4.41h-2.166V6.975z"/>
	<path fill="#002E6D" d="M81.727,5.369l-1.984-0.004c0.074-1.639,0.9-2.73,3.322-2.73c2.342,0,3.529,0.77,3.576,2.342v2.887
		c0,2.342-1.41,3.385-3.705,3.545c-2.037,0.16-3.447-0.787-3.447-2.662c0.047-2.037,1.523-2.582,3.672-2.791
		c0.914-0.113,1.379-0.385,1.379-0.85c-0.047-0.482-0.496-0.711-1.379-0.723C82.162,4.369,81.84,4.967,81.727,5.369z M84.572,7.768
		V7.072c-0.498,0.209-1.074,0.295-1.701,0.422c-0.85,0.16-1.283,0.563-1.283,1.188c0.049,0.674,0.402,0.994,1.076,0.994
		C83.85,9.676,84.572,8.969,84.572,7.768z"/>
	<path fill="#002E6D" d="M95.789,0v7.648c0,2.549-1.33,3.816-3.977,3.801c-2.631-0.049-3.945-1.477-3.945-4.299
		c0-2.887,1.123-4.361,3.383-4.443c1.059,0,1.877,0.434,2.422,1.316V1.318l0.006-0.238C94.383,0.027,95.789,0,95.789,0z
		 M90.064,7.055c-0.016,1.715,0.561,2.582,1.779,2.582s1.828-0.867,1.828-2.582c-0.047-1.637-0.641-2.439-1.795-2.439
		S90.127,5.418,90.064,7.055z"/>
	<path fill="#002E6D" d="M57.807,12.645h0.557v11.236H56.23v-9.863C56.23,13.697,56.895,12.645,57.807,12.645z"/>
	<path fill="#002E6D" d="M69.426,15.141c-1.057,0-1.859,0.432-2.404,1.314v-3.811h-0.242l0,0c-1.064,0.014-1.623,0.582-1.891,1.045
		v-0.072v6.463c0,2.549,1.33,3.816,3.977,3.801c2.631-0.049,3.945-1.477,3.945-4.299C72.811,16.695,71.688,15.221,69.426,15.141z
		 M68.801,22.068c-1.219,0-1.795-0.865-1.779-2.582c0.064-1.637,0.658-2.438,1.813-2.438s1.748,0.801,1.795,2.438
		C70.629,21.203,70.02,22.068,68.801,22.068z"/>
	<g>
		<path fill="#002E6D" d="M58.229,9.189c0.34,0.33,0.83,0.494,1.471,0.494c0.459,0,0.854-0.113,1.184-0.344
			c0.33-0.229,0.533-0.471,0.607-0.727h1.998c-0.32,0.99-0.811,1.699-1.471,2.127c-0.66,0.426-1.461,0.639-2.398,0.639
			c-0.65,0-1.236-0.104-1.76-0.313c-0.521-0.207-0.963-0.502-1.326-0.887c-0.363-0.383-0.643-0.842-0.84-1.375
			s-0.295-1.119-0.295-1.758c0-0.619,0.102-1.195,0.303-1.729c0.203-0.531,0.49-0.992,0.863-1.383
			c0.373-0.389,0.818-0.695,1.336-0.918c0.518-0.225,1.09-0.336,1.719-0.336c0.703,0,1.316,0.135,1.838,0.406
			c0.523,0.273,0.953,0.639,1.287,1.096c0.336,0.459,0.578,0.98,0.729,1.568c0.148,0.586,0.203,1.197,0.16,1.838h-5.965
			C57.701,8.324,57.887,8.857,58.229,9.189z M60.795,4.84c-0.271-0.299-0.686-0.447-1.24-0.447c-0.361,0-0.662,0.061-0.902,0.184
			s-0.432,0.273-0.576,0.455s-0.246,0.373-0.305,0.576S57.68,5.99,57.668,6.15h3.693C61.256,5.574,61.066,5.139,60.795,4.84z"/>
	</g>
	<g>
		<path fill="#002E6D" d="M74.586,4.365c-0.365,0-0.672,0.084-0.92,0.25c-0.248,0.168-0.449,0.383-0.605,0.646
			s-0.268,0.555-0.332,0.871c-0.064,0.318-0.096,0.633-0.096,0.945c0,0.303,0.031,0.609,0.096,0.922
			c0.064,0.311,0.17,0.594,0.314,0.848c0.146,0.252,0.342,0.459,0.59,0.621s0.549,0.242,0.904,0.242
			c0.549,0,0.973-0.154,1.268-0.461c0.297-0.307,0.482-0.719,0.559-1.234h2.213c-0.152,1.109-0.582,1.953-1.293,2.535
			s-1.621,0.873-2.729,0.873c-0.625,0-1.199-0.105-1.721-0.316c-0.521-0.209-0.967-0.502-1.332-0.879
			c-0.367-0.377-0.652-0.826-0.855-1.35c-0.205-0.521-0.309-1.096-0.309-1.719c0-0.646,0.096-1.246,0.283-1.801
			c0.189-0.555,0.465-1.035,0.832-1.438c0.365-0.404,0.813-0.719,1.34-0.945s1.131-0.34,1.809-0.34c0.496,0,0.973,0.064,1.43,0.193
			c0.457,0.131,0.867,0.326,1.229,0.59c0.359,0.264,0.654,0.594,0.879,0.986c0.227,0.393,0.355,0.857,0.389,1.396h-2.246
			C76.131,4.844,75.566,4.365,74.586,4.365z"/>
	</g>
	<g>
		<path fill="#002E6D" d="M97.432,5.229c0.203-0.543,0.494-1.006,0.871-1.389c0.377-0.381,0.83-0.678,1.357-0.889
			c0.527-0.209,1.119-0.314,1.775-0.314c0.658,0,1.252,0.105,1.785,0.314c0.533,0.211,0.988,0.508,1.365,0.889
			c0.377,0.383,0.668,0.846,0.871,1.389c0.205,0.545,0.307,1.15,0.307,1.818c0,0.666-0.102,1.27-0.307,1.809
			c-0.203,0.537-0.494,0.998-0.871,1.381c-0.377,0.381-0.832,0.676-1.365,0.879c-0.533,0.205-1.127,0.307-1.785,0.307
			c-0.656,0-1.248-0.102-1.775-0.307c-0.527-0.203-0.98-0.498-1.357-0.879c-0.377-0.383-0.668-0.844-0.871-1.381
			c-0.205-0.539-0.307-1.143-0.307-1.809C97.125,6.379,97.227,5.773,97.432,5.229z M99.514,8.023
			c0.064,0.318,0.176,0.604,0.332,0.855c0.156,0.254,0.363,0.455,0.621,0.605c0.26,0.15,0.582,0.227,0.969,0.227
			c0.389,0,0.713-0.076,0.979-0.227c0.264-0.15,0.473-0.352,0.629-0.605c0.156-0.252,0.268-0.537,0.332-0.855
			s0.096-0.643,0.096-0.977s-0.031-0.662-0.096-0.986c-0.064-0.322-0.176-0.607-0.332-0.855s-0.365-0.449-0.629-0.605
			c-0.266-0.156-0.59-0.234-0.979-0.234c-0.387,0-0.709,0.078-0.969,0.234c-0.258,0.156-0.465,0.357-0.621,0.605
			s-0.268,0.533-0.332,0.855c-0.064,0.324-0.096,0.652-0.096,0.986S99.449,7.705,99.514,8.023z"/>
	</g>
	<path fill="#002E6D" d="M74.064,19.479c0.064-2.742,1.42-4.268,4.258-4.268h0.645v2.213l-0.99,0.021c-1.188,0-1.746,0.766-1.746,2
		v4.412h-2.166V19.479z"/>
	<g>
		<path fill="#002E6D" d="M82.342,21.693c0.342,0.33,0.832,0.494,1.471,0.494c0.459,0,0.854-0.113,1.184-0.344
			c0.33-0.229,0.533-0.471,0.607-0.727h1.998c-0.318,0.992-0.809,1.699-1.471,2.127c-0.66,0.426-1.461,0.639-2.398,0.639
			c-0.65,0-1.236-0.104-1.758-0.311c-0.523-0.209-0.965-0.504-1.328-0.889c-0.361-0.383-0.643-0.842-0.838-1.375
			c-0.199-0.533-0.297-1.119-0.297-1.758c0-0.619,0.102-1.195,0.305-1.727c0.201-0.533,0.49-0.994,0.863-1.385
			c0.373-0.389,0.816-0.695,1.334-0.918c0.518-0.225,1.09-0.336,1.719-0.336c0.703,0,1.316,0.135,1.84,0.408
			c0.521,0.271,0.951,0.637,1.287,1.094c0.336,0.459,0.578,0.98,0.727,1.568c0.15,0.586,0.203,1.199,0.16,1.838h-5.963
			C81.814,20.828,82,21.361,82.342,21.693z M84.908,17.344c-0.271-0.299-0.686-0.447-1.24-0.447c-0.361,0-0.662,0.061-0.902,0.184
			s-0.432,0.273-0.576,0.455c-0.143,0.182-0.244,0.373-0.303,0.576s-0.094,0.383-0.104,0.543h3.693
			C85.369,18.08,85.18,17.643,84.908,17.344z"/>
	</g>
	<rect x="60.652" y="12.645" fill="#002E6D" width="2.133" height="1.943"/>
	<rect x="60.652" y="15.564" fill="#002E6D" width="2.133" height="8.316"/>
</g>
</svg>
