<?xml version="1.0" encoding="utf-8"?>
<!-- Generator: Adobe Illustrator 16.0.0, SVG Export Plug-In . SVG Version: 6.00 Build 0)  -->
<!DOCTYPE svg PUBLIC "-//W3C//DTD SVG 1.1//EN" "http://www.w3.org/Graphics/SVG/1.1/DTD/svg11.dtd">
<svg version="1.1" id="Capa_1" xmlns="http://www.w3.org/2000/svg" xmlns:xlink="http://www.w3.org/1999/xlink" x="0px" y="0px"
	 width="105.764px" height="26px" viewBox="0 0 105.764 26" enable-background="new 0 0 105.764 26" xml:space="preserve">
<g>
	<g>
		<path fill="#DB1217" d="M62.211,7.707c-0.878,0-1.521,0.644-1.521,1.521c0,0.702,0.41,1.17,1.17,1.17
			c0.877,0,1.521-0.644,1.521-1.521C63.44,8.116,62.972,7.707,62.211,7.707z"/>
		<path fill="#DB1217" d="M59.578,8.058C59.521,8,59.521,8,59.462,8H57.59c-0.059,0-0.175,0.058-0.175,0.116
			c0,0-0.761,3.626-0.761,3.86c-0.468-0.818-1.404-1.346-2.573-1.346c-2.282,0-3.979,1.872-3.979,4.387
			c0,2.106,1.287,3.509,3.159,3.509c0.878,0,1.696-0.351,2.281-0.994c-0.059,0.175-0.059,0.351-0.116,0.586
			c0,0.058,0,0.117,0.058,0.117c0.059,0.058,0.059,0.058,0.117,0.058h1.871c0.059,0,0.176-0.058,0.176-0.117l1.93-9.942
			C59.578,8.175,59.578,8.116,59.578,8.058z M55.894,14.608c-0.058,0.293-0.116,0.526-0.234,0.761
			c-0.116,0.232-0.292,0.41-0.468,0.585c-0.176,0.176-0.35,0.291-0.584,0.408c-0.409,0.176-0.937,0.176-1.287,0
			c-0.175-0.058-0.352-0.175-0.468-0.293c-0.117-0.115-0.234-0.29-0.292-0.468c-0.059-0.175-0.118-0.409-0.059-0.643
			c0-0.292,0.059-0.585,0.175-0.818s0.234-0.468,0.469-0.702c0.175-0.176,0.409-0.351,0.644-0.468
			c0.234-0.116,0.525-0.176,0.76-0.176s0.467,0.06,0.643,0.118c0.176,0.116,0.352,0.233,0.468,0.35
			c0.118,0.176,0.234,0.352,0.234,0.585C55.952,14.082,55.952,14.316,55.894,14.608z"/>
		<path fill="#DB1217" d="M62.562,11.509h-1.931c-0.058,0-0.175,0.059-0.175,0.117l-1.346,6.55c0,0.06,0,0.117,0.06,0.117
			c0.058,0.058,0.058,0.058,0.116,0.058h1.93c0.06,0,0.176-0.058,0.176-0.115l1.345-6.552c0-0.058,0-0.116-0.058-0.116
			C62.621,11.509,62.562,11.509,62.562,11.509z"/>
		<path fill="#DB1217" d="M34.019,17.768c0.176-0.879,0.585-2.866,0.585-2.926c0.059,0,2.281,0,2.281,0
			c2.632,0,4.27-1.403,4.27-3.684C41.155,9.169,39.809,8,37.529,8H33.61c-0.059,0-0.176,0.058-0.176,0.116l-1.988,9.944
			c0,0.058,0,0.115,0.059,0.115c0.058,0.06,0.058,0.06,0.117,0.06h0.76h0.994C33.375,18.293,33.903,18.293,34.019,17.768z
			 M37.002,12.736c0,0-1.872,0-1.931,0c0-0.058,0.527-2.515,0.527-2.573c0.116,0,1.813,0,1.813,0c0.878,0,1.345,0.41,1.345,1.111
			C38.698,12.211,38.114,12.736,37.002,12.736z"/>
		<path fill="#DB1217" d="M77.067,10.689c-2.573,0-4.444,1.813-4.444,4.387c0,2.163,1.462,3.567,3.801,3.567
			c2.574,0,4.445-1.813,4.445-4.386C80.811,12.094,79.348,10.689,77.067,10.689z M76.541,16.362c-0.994,0-1.58-0.525-1.58-1.461
			c0-1.17,0.818-1.988,1.931-1.988c0.994,0,1.58,0.525,1.58,1.461C78.472,15.544,77.653,16.362,76.541,16.362z"/>
		<path fill="#DB1217" d="M72.856,8.058C72.798,8,72.798,8,72.74,8h-1.873c-0.058,0-0.176,0.058-0.176,0.116
			c0,0-0.761,3.626-0.761,3.86c-0.466-0.818-1.402-1.346-2.572-1.346c-2.281,0-3.979,1.872-3.979,4.387
			c0,2.106,1.287,3.509,3.16,3.509c0.876,0,1.695-0.351,2.281-0.994c-0.061,0.175-0.061,0.351-0.118,0.586
			c0,0.058,0,0.117,0.058,0.117c0.061,0.058,0.061,0.058,0.118,0.058h1.87c0.061,0,0.178-0.058,0.178-0.117l1.988-10.001
			C72.915,8.175,72.915,8.116,72.856,8.058z M69.289,14.608c-0.06,0.293-0.117,0.526-0.235,0.761
			c-0.117,0.232-0.293,0.41-0.468,0.585c-0.176,0.176-0.351,0.291-0.584,0.408c-0.41,0.176-0.937,0.176-1.287,0
			c-0.175-0.058-0.351-0.175-0.468-0.293c-0.118-0.115-0.235-0.29-0.293-0.468c-0.058-0.175-0.118-0.409-0.058-0.643
			c0-0.292,0.058-0.585,0.175-0.818c0.118-0.233,0.233-0.468,0.469-0.702c0.175-0.176,0.408-0.351,0.644-0.468
			c0.232-0.116,0.525-0.176,0.759-0.176c0.235,0,0.468,0.06,0.644,0.118c0.175,0.116,0.351,0.233,0.468,0.35
			c0.118,0.176,0.235,0.352,0.235,0.585C69.347,14.082,69.347,14.316,69.289,14.608z"/>
		<path fill="#DB1217" d="M87.068,11.217c-0.994-0.469-1.987-0.644-2.924-0.586c-1.638,0.117-2.572,1.111-2.454,2.516
			c0.058,0.877,0.583,1.521,1.52,1.988l1.052,0.526c0.41,0.233,0.468,0.351,0.468,0.469c0,0.291-0.35,0.408-0.525,0.408
			c-0.644,0.058-1.404-0.176-2.281-0.701c-0.058,0-0.058-0.058-0.117,0c-0.058,0-0.058,0.058-0.115,0.058l-0.821,1.462
			c-0.058,0.061,0,0.176,0.06,0.233c1.052,0.703,2.222,0.996,3.393,0.937c1.813-0.176,2.747-1.109,2.632-2.632
			c-0.06-0.936-0.528-1.462-1.521-1.987l-0.935-0.469c-0.526-0.292-0.586-0.351-0.586-0.525c0-0.059,0-0.352,0.469-0.352
			c0.525-0.059,1.169,0.117,1.87,0.409c0.06,0,0.117,0,0.117,0c0.058,0,0.058-0.058,0.118-0.116l0.644-1.463
			C87.186,11.392,87.186,11.274,87.068,11.217z"/>
		<path fill="#DB1217" d="M97.304,8.292c-0.058-0.059-0.117-0.117-0.175-0.117H94.44c-0.06,0-0.117,0.059-0.176,0.059
			c0,0-2.634,3.743-2.866,4.152c-0.058-0.351-1.345-4.094-1.345-4.094c0-0.059-0.118-0.117-0.176-0.117h-2.341
			c-0.058,0-0.115,0-0.176,0.059c-0.058,0.059-0.058,0.117,0,0.176l2.457,6.316l-0.759,3.686c0,0.058,0,0.115,0.058,0.175
			c0.058,0.058,0.058,0.058,0.117,0.058h1.871c0.235,0,0.468-0.175,0.525-0.408l0.644-3.394l4.855-6.315
			C97.365,8.409,97.365,8.351,97.304,8.292z"/>
		<path fill="#DB1217" d="M102.979,11.158c-0.061-0.06-0.061-0.06-0.118-0.06h-1.87c-0.061,0-0.118,0.06-0.176,0.118
			c0,0-0.06,0.351-0.117,0.584l0,0c-0.411-0.526-1.055-0.818-1.698-0.877c-0.583-0.059-1.169,0.059-1.695,0.293
			c-1.813,0.701-3.04,2.456-2.981,4.444c0,1.695,1.111,2.865,2.807,2.925c0.937,0.058,1.695-0.235,2.456-0.818
			c-0.058,0.175-0.058,0.408-0.117,0.583c0,0.061,0,0.118,0.06,0.118c0.058,0.058,0.058,0.058,0.115,0.058h1.873
			c0.058,0,0.118-0.058,0.176-0.115l1.404-7.137C103.036,11.217,103.036,11.217,102.979,11.158z M100.171,14.842
			c-0.06,0.234-0.117,0.527-0.235,0.702c-0.115,0.235-0.232,0.41-0.408,0.586c-0.175,0.175-0.351,0.291-0.586,0.351
			c-0.408,0.175-0.876,0.175-1.227,0c-0.176-0.06-0.293-0.176-0.411-0.293c-0.117-0.118-0.232-0.293-0.293-0.468
			c-0.058-0.176-0.058-0.409-0.058-0.644c0-0.293,0.058-0.525,0.176-0.818c0.117-0.234,0.232-0.469,0.41-0.644
			c0.176-0.176,0.408-0.352,0.584-0.468c0.235-0.117,0.468-0.176,0.761-0.176c0.233,0,0.408,0.059,0.644,0.117
			c0.176,0.059,0.351,0.175,0.469,0.351c0.115,0.176,0.175,0.351,0.232,0.585C100.171,14.316,100.171,14.551,100.171,14.842z"/>
		<path fill="#DB1217" d="M45.717,10.631c-2.515,0-4.387,1.813-4.387,4.387c0,2.164,1.462,3.568,3.86,3.568
			c1.053,0,1.989-0.293,2.924-0.879c0.06-0.058,0.117-0.175,0-0.232l-1.169-1.229c-0.059-0.058-0.118-0.058-0.177,0
			c-0.525,0.293-0.994,0.41-1.52,0.41c-1.112,0-1.696-0.468-1.756-1.345h5.324c0.058,0,0.175-0.059,0.175-0.118
			c0.116-0.525,0.176-0.935,0.176-1.345C49.168,11.86,47.881,10.631,45.717,10.631z M43.786,13.614
			c0.351-0.819,0.994-1.287,1.931-1.287c0.936,0,1.463,0.409,1.463,1.287C47.003,13.614,43.904,13.614,43.786,13.614z"/>
	</g>
	<path fill="#DB1217" d="M18.344,1.624h-0.292h-1.229H3.077c-0.233,0-0.409,0.176-0.409,0.409v2.164
		c0,2.398,1.696,3.744,4.797,3.744h10.879c1.17,0,2.105,0.936,2.105,2.104c0,1.171-0.936,2.106-2.105,2.106l0,0H6.12
		c-0.177,0-0.352,0.116-0.352,0.292L2.844,23.85c-0.058,0.118,0,0.233,0.059,0.351c0.059,0.118,0.175,0.176,0.293,0.176h3.86
		c1.462,0,2.164-1.228,2.34-1.813l1.11-4.151h7.779c4.62,0,8.364-3.744,8.364-8.365C26.65,5.367,22.906,1.624,18.344,1.624z"/>
</g>
</svg>
