<?xml version="1.0" encoding="UTF-8"?>
<svg id="Capa_1" data-name="Capa 1" xmlns="http://www.w3.org/2000/svg" version="1.1" viewBox="0 0 26 26">
  <defs>
    <style>
      .cls-1 {
        fill: #c5003e;
      }

      .cls-1, .cls-2 {
        stroke-width: 0px;
      }

      .cls-2 {
        fill: #fff;
      }
    </style>
  </defs>
  <circle class="cls-1" cx="12.9" cy="12.9" r="12.9"/>
  <g id="_9NaQHY" data-name="9NaQHY">
    <path class="cls-2" d="M11.9,6.8h1.8c.2,0,.4,0,.6,0,1.6,0,3.3,0,4.9.3,1.3.2,1.9.8,2.1,2.1.4,2.5.4,5.1,0,7.6-.2,1.1-.9,1.8-2,1.9-1.5.2-2.9.3-4.4.3-.2,0-.3,0-.5,0h-2.6c-.2,0-.5,0-.7,0-1.5,0-3,0-4.6-.3-1.1-.1-1.8-.8-2-1.9-.5-2.6-.4-5.2,0-7.8.2-1.1.9-1.8,2.1-1.9,1.6-.2,3.2-.3,4.8-.3.2,0,.3,0,.5,0ZM15.6,12.9c0,0-.2-.1-.2-.2-1.3-.7-2.5-1.5-3.8-2.2-.3-.2-.3-.2-.3.2,0,1.4,0,2.9,0,4.3,0,.4,0,.4.3.2,1.3-.7,2.5-1.5,3.8-2.2,0,0,.2,0,.2-.2Z"/>
  </g>
</svg>