<?xml version="1.0" encoding="utf-8"?>
<!-- Generator: Adobe Illustrator 16.0.0, SVG Export Plug-In . SVG Version: 6.00 Build 0)  -->
<!DOCTYPE svg PUBLIC "-//W3C//DTD SVG 1.1//EN" "http://www.w3.org/Graphics/SVG/1.1/DTD/svg11.dtd">
<svg version="1.1"
	 id="SVGRoot" xmlns:dc="http://purl.org/dc/elements/1.1/" xmlns:cc="http://creativecommons.org/ns#" xmlns:rdf="http://www.w3.org/1999/02/22-rdf-syntax-ns#" xmlns:svg="http://www.w3.org/2000/svg" xmlns:sodipodi="http://sodipodi.sourceforge.net/DTD/sodipodi-0.dtd" xmlns:inkscape="http://www.inkscape.org/namespaces/inkscape" sodipodi:docname="icon-user.svg" inkscape:version="0.92.3 (2405546, 2018-03-11)"
	 xmlns="http://www.w3.org/2000/svg" xmlns:xlink="http://www.w3.org/1999/xlink" x="0px" y="0px" width="26px" height="26px"
	 viewBox="0 0 26 26" enable-background="new 0 0 26 26" xml:space="preserve">
<sodipodi:namedview  showgrid="false" inkscape:cy="-0.088121489" inkscape:cx="-4.2656251" inkscape:zoom="9.8461538" borderopacity="1.0" bordercolor="#666666" pagecolor="#ffffff" id="base" inkscape:grid-bbox="true" inkscape:window-maximized="1" inkscape:window-y="0" inkscape:current-layer="layer1-3" inkscape:pageshadow="2" inkscape:pageopacity="0.0" inkscape:window-x="0" inkscape:window-height="713" inkscape:document-units="px" inkscape:window-width="1366">
	</sodipodi:namedview>
<path fill="#747474" d="M16.939,14.949c1.723-1.233,2.851-3.245,2.851-5.52c0-3.744-3.046-6.79-6.79-6.79s-6.79,3.046-6.79,6.79
	c0,2.275,1.128,4.287,2.851,5.52c-4.031,1.684-6.897,5.86-6.897,10.746c0,0.103,0.012,0.202,0.015,0.305h21.645
	c0.003-0.103,0.015-0.202,0.015-0.305C23.837,20.81,20.971,16.633,16.939,14.949z M13,5.608c2.168,0,3.933,1.714,3.933,3.821
	c0,2.107-1.765,3.821-3.933,3.821s-3.932-1.714-3.932-3.821C9.068,7.323,10.832,5.608,13,5.608z M13,16.575
	c3.982,0,7.32,3.021,8.185,7.06H4.816C5.681,19.597,9.018,16.575,13,16.575z"/>
</svg>
