<?xml version="1.0" encoding="utf-8"?>
<!-- Generator: Adobe Illustrator 16.0.0, SVG Export Plug-In . SVG Version: 6.00 Build 0)  -->
<!DOCTYPE svg PUBLIC "-//W3C//DTD SVG 1.1//EN" "http://www.w3.org/Graphics/SVG/1.1/DTD/svg11.dtd">
<svg version="1.1" id="Capa_1" xmlns="http://www.w3.org/2000/svg" xmlns:xlink="http://www.w3.org/1999/xlink" x="0px" y="0px"
	 width="26px" height="26px" viewBox="0 0 26 26" enable-background="new 0 0 26 26" xml:space="preserve">
<g>
	<linearGradient id="SVGID_1_" gradientUnits="userSpaceOnUse" x1="12.8936" y1="1.3335" x2="12.8936" y2="24.7513">
		<stop  offset="0" style="stop-color:#2ABCEA"/>
		<stop  offset="1" style="stop-color:#2757A4"/>
	</linearGradient>
	<circle fill="url(#SVGID_1_)" cx="12.895" cy="13.106" r="2.326"/>
	<linearGradient id="SVGID_2_" gradientUnits="userSpaceOnUse" x1="12.9209" y1="1.3335" x2="12.9209" y2="24.7513">
		<stop  offset="0" style="stop-color:#2ABCEA"/>
		<stop  offset="1" style="stop-color:#2757A4"/>
	</linearGradient>
	<path fill="url(#SVGID_2_)" d="M15.8,7.398H9.989c-0.846,0-1.586,0.265-2.061,0.74c-0.477,0.476-0.74,1.215-0.74,2.061v5.813
		c0,0.845,0.264,1.585,0.793,2.113c0.527,0.476,1.215,0.74,2.061,0.74H15.8c0.846,0,1.586-0.265,2.062-0.74
		c0.528-0.476,0.793-1.216,0.793-2.061v-5.813c0-0.846-0.265-1.532-0.74-2.061C17.386,7.663,16.698,7.398,15.8,7.398z
		 M12.895,16.699c-2.008,0-3.594-1.639-3.594-3.594c0-2.008,1.639-3.593,3.594-3.593c1.954,0,3.645,1.585,3.645,3.593
		S14.902,16.699,12.895,16.699z M16.646,10.199c-0.476,0-0.846-0.37-0.846-0.846s0.37-0.846,0.846-0.846s0.845,0.37,0.845,0.846
		S17.121,10.199,16.646,10.199z"/>
	<linearGradient id="SVGID_3_" gradientUnits="userSpaceOnUse" x1="12.9995" y1="1.3335" x2="12.9995" y2="24.7513">
		<stop  offset="0" style="stop-color:#2ABCEA"/>
		<stop  offset="1" style="stop-color:#2757A4"/>
	</linearGradient>
	<path fill="url(#SVGID_3_)" d="M13,0C5.813,0,0,5.813,0,13c0,7.188,5.813,13,13,13c7.186,0,12.999-5.813,12.999-13
		C26.052,5.813,20.187,0,13,0z M19.922,16.065c0,1.216-0.423,2.272-1.163,3.012c-0.739,0.739-1.797,1.11-2.959,1.11h-5.758
		c-1.162,0-2.221-0.371-2.961-1.11c-0.791-0.739-1.162-1.796-1.162-3.012v-5.813c0-2.431,1.639-4.122,4.123-4.122h5.811
		c1.216,0,2.22,0.423,2.959,1.163c0.74,0.739,1.11,1.743,1.11,2.959V16.065z"/>
</g>
</svg>
