<?xml version="1.0" encoding="utf-8"?>
<!-- Generator: Adobe Illustrator 16.0.0, SVG Export Plug-In . SVG Version: 6.00 Build 0)  -->
<!DOCTYPE svg PUBLIC "-//W3C//DTD SVG 1.1//EN" "http://www.w3.org/Graphics/SVG/1.1/DTD/svg11.dtd">
<svg version="1.1" id="Capa_1" xmlns="http://www.w3.org/2000/svg" xmlns:xlink="http://www.w3.org/1999/xlink" x="0px" y="0px"
	 width="500px" height="500px" viewBox="0 0 350 350" enable-background="new 0 0 350 350" xml:space="preserve">
<g>
	<linearGradient id="SVGID_1_" gradientUnits="userSpaceOnUse" x1="145.6182" y1="121.5703" x2="145.6182" y2="259.3846">
		<stop  offset="0" style="stop-color:#FF628D"/>
		<stop  offset="1" style="stop-color:#FF966F"/>
	</linearGradient>
	<path fill="url(#SVGID_1_)" d="M145.62,110.489c-34.298,0-62.101,27.803-62.101,62.1c0,49.283,62.101,85.846,62.101,85.846
		s62.098-38.347,62.098-85.846C207.717,138.292,179.917,110.489,145.62,110.489z M145.618,213.66
		c-22.866,0-41.402-18.536-41.402-41.401s18.536-41.401,41.402-41.401c22.865,0,41.4,18.536,41.4,41.401
		S168.483,213.66,145.618,213.66z"/>
	<g>
		<linearGradient id="SVGID_2_" gradientUnits="userSpaceOnUse" x1="216.645" y1="316.2329" x2="216.645" y2="35.7777">
			<stop  offset="0" style="stop-color:#1CCEE2"/>
			<stop  offset="1" style="stop-color:#1FE3C9"/>
		</linearGradient>
		<path fill="url(#SVGID_2_)" d="M270.285,290.848l-42.03-50.028l-65.249,36.919l44.025,43.797
			C230.675,316.392,252.247,305.7,270.285,290.848z"/>
		<linearGradient id="SVGID_3_" gradientUnits="userSpaceOnUse" x1="271.27" y1="316.2329" x2="271.27" y2="35.7772">
			<stop  offset="0" style="stop-color:#1CCEE2"/>
			<stop  offset="1" style="stop-color:#1FE3C9"/>
		</linearGradient>
		<path fill="url(#SVGID_3_)" d="M245.202,179.9l-25.731,19.695l65.233,77.652c19.823-21.256,33.543-48.264,38.366-78.263
			L245.202,179.9z"/>
		<linearGradient id="SVGID_4_" gradientUnits="userSpaceOnUse" x1="245.6382" y1="316.2378" x2="245.6382" y2="35.7708">
			<stop  offset="0" style="stop-color:#1CCEE2"/>
			<stop  offset="1" style="stop-color:#1FE3C9"/>
		</linearGradient>
		<path fill="url(#SVGID_4_)" d="M217.216,172.589c0,1.317-0.07,2.622-0.148,3.925l91.393-69.957
			c-3.271-6.365-6.98-12.462-11.095-18.258l-114.55,23.136C203.427,124.018,217.216,146.723,217.216,172.589z"/>
		<linearGradient id="SVGID_5_" gradientUnits="userSpaceOnUse" x1="289.4165" y1="316.231" x2="289.4165" y2="35.7745">
			<stop  offset="0" style="stop-color:#1CCEE2"/>
			<stop  offset="1" style="stop-color:#1FE3C9"/>
		</linearGradient>
		<path fill="url(#SVGID_5_)" d="M316.53,125.297l-62.696,47.997l70.368,17.246C324.726,185.433,325,180.248,325,175
			C325,157.573,321.994,140.856,316.53,125.297z"/>
		<linearGradient id="SVGID_6_" gradientUnits="userSpaceOnUse" x1="187.002" y1="316.2368" x2="187.0019" y2="35.7714">
			<stop  offset="0" style="stop-color:#1CCEE2"/>
			<stop  offset="1" style="stop-color:#1FE3C9"/>
		</linearGradient>
		<path fill="url(#SVGID_6_)" d="M156.765,271.534l65.947-37.313l-17.801-21.187c-17.625,29.387-48.479,49.785-53.62,53.055
			L156.765,271.534z"/>
		<linearGradient id="SVGID_7_" gradientUnits="userSpaceOnUse" x1="245.2339" y1="316.2349" x2="245.2339" y2="35.7729">
			<stop  offset="0" style="stop-color:#1CCEE2"/>
			<stop  offset="1" style="stop-color:#1FE3C9"/>
		</linearGradient>
		<path fill="url(#SVGID_7_)" d="M198.77,99.57l92.928-18.773c-22.688-28.071-55.285-47.782-92.482-53.823L198.77,99.57z"/>
		<linearGradient id="SVGID_8_" gradientUnits="userSpaceOnUse" x1="59.9771" y1="316.2329" x2="59.977" y2="35.773">
			<stop  offset="0" style="stop-color:#1CCEE2"/>
			<stop  offset="1" style="stop-color:#1FE3C9"/>
		</linearGradient>
		<path fill="url(#SVGID_8_)" d="M40.499,108.591C30.592,128.613,25,151.148,25,175c0,12.701,1.593,25.029,4.566,36.806
			l44.639-34.169c-0.123-1.666-0.186-3.349-0.186-5.047c0-19.709,8.005-37.582,20.934-50.542L40.499,108.591z"/>
		<linearGradient id="SVGID_9_" gradientUnits="userSpaceOnUse" x1="70.6787" y1="316.2368" x2="70.6787" y2="35.7722">
			<stop  offset="0" style="stop-color:#1CCEE2"/>
			<stop  offset="1" style="stop-color:#1FE3C9"/>
		</linearGradient>
		<path fill="url(#SVGID_9_)" d="M96.744,113.758l-5.153-63.434c-19.317,12.95-35.43,30.281-46.979,50.554L96.744,113.758z"/>
		<linearGradient id="SVGID_10_" gradientUnits="userSpaceOnUse" x1="116.502" y1="316.2358" x2="116.5019" y2="35.7704">
			<stop  offset="0" style="stop-color:#1CCEE2"/>
			<stop  offset="1" style="stop-color:#1FE3C9"/>
		</linearGradient>
		<path fill="url(#SVGID_10_)" d="M138.189,265.005c-8.682-5.531-36.401-24.633-52.431-52.164L74.892,202.03l-38.767,29.677
			C58.494,286.426,112.23,325,175.001,325c7.434,0,14.734-0.561,21.877-1.606L138.189,265.005z"/>
		<linearGradient id="SVGID_11_" gradientUnits="userSpaceOnUse" x1="150.6582" y1="316.2349" x2="150.6582" y2="35.7722">
			<stop  offset="0" style="stop-color:#1CCEE2"/>
			<stop  offset="1" style="stop-color:#1FE3C9"/>
		</linearGradient>
		<path fill="url(#SVGID_11_)" d="M116.08,107.393c9.014-4.099,19.009-6.403,29.54-6.403c8.634,0,16.915,1.537,24.586,4.35
			l20.077-4.056l0.469-75.458c-5.176-0.54-10.431-0.827-15.75-0.827c-23.067,0-44.912,5.22-64.436,14.523L116.08,107.393z"/>
	</g>
</g>
</svg>
