<svg width="31" height="31" viewBox="0 0 31 31" fill="none" xmlns="http://www.w3.org/2000/svg">
<path d="M30.9212 9.11411C30.8486 7.46696 30.5822 6.33455 30.2005 5.35331C29.8068 4.31175 29.2011 3.37923 28.4075 2.60403C27.6322 1.81677 26.6933 1.20503 25.6637 0.817545C24.6765 0.435977 23.5498 0.169612 21.9024 0.0969888C20.2426 0.018215 19.7157 0 15.506 0C11.2964 0 10.7695 0.018215 9.11585 0.0908383C7.46838 0.163462 6.33576 0.430063 5.35457 0.811394C4.31257 1.20503 3.37988 1.81062 2.60453 2.60403C1.81711 3.37923 1.20549 4.3179 0.817701 5.3474C0.43606 6.33455 0.169645 7.46081 0.0970073 9.10796C0.0182184 10.7674 0 11.2942 0 15.5031C0 19.7119 0.0182184 20.2387 0.0908557 21.892C0.163493 23.5392 0.430145 24.6716 0.811786 25.6528C1.20549 26.6944 1.81711 27.6269 2.60453 28.4021C3.37988 29.1894 4.31872 29.8011 5.34842 30.1886C6.33576 30.5702 7.46223 30.8365 9.10994 30.9092C10.7633 30.982 11.2905 31 15.5001 31C19.7098 31 20.2367 30.982 21.8903 30.9092C23.5378 30.8365 24.6704 30.5702 25.6516 30.1886C27.7353 29.3831 29.3828 27.736 30.1884 25.6528C30.5699 24.6657 30.8365 23.5392 30.9091 21.892C30.9818 20.2387 31 19.7119 31 15.5031C31 11.2942 30.9938 10.7674 30.9212 9.11411ZM28.1291 21.7709C28.0623 23.2849 27.808 24.1024 27.596 24.6475C27.075 25.998 26.0029 27.0698 24.6522 27.5907C24.107 27.8027 23.2834 28.057 21.7751 28.1235C20.1397 28.1963 19.6492 28.2143 15.5122 28.2143C11.3752 28.2143 10.8785 28.1963 9.24906 28.1235C7.7348 28.057 6.9171 27.8027 6.37196 27.5907C5.69977 27.3423 5.08792 26.9487 4.59129 26.434C4.07644 25.9313 3.68273 25.3257 3.4343 24.6536C3.2223 24.1086 2.96795 23.2849 2.90147 21.7771C2.82859 20.142 2.81061 19.6514 2.81061 15.5151C2.81061 11.3789 2.82859 10.8824 2.90147 9.25345C2.96795 7.73947 3.2223 6.92193 3.4343 6.3769C3.68273 5.7046 4.07644 5.0931 4.59744 4.59632C5.09998 4.08157 5.70569 3.68794 6.37811 3.43979C6.92325 3.22784 7.7471 2.97354 9.25521 2.90683C10.8906 2.8342 11.3813 2.81599 15.5181 2.81599C19.6613 2.81599 20.1517 2.8342 21.7812 2.90683C23.2955 2.97354 24.1132 3.22784 24.6583 3.43979C25.3305 3.68794 25.9424 4.08157 26.439 4.59632C26.9538 5.09901 27.3476 5.7046 27.596 6.3769C27.808 6.92193 28.0623 7.74539 28.1291 9.25345C28.2017 10.8885 28.2199 11.3789 28.2199 15.5151C28.2199 19.6514 28.2017 20.1358 28.1291 21.7709Z" fill="white"/>
<path d="M15.506 7.53958C11.1088 7.53958 7.54102 11.1064 7.54102 15.5031C7.54102 19.8997 11.1088 23.4666 15.506 23.4666C19.9035 23.4666 23.4711 19.8997 23.4711 15.5031C23.4711 11.1064 19.9035 7.53958 15.506 7.53958ZM15.506 20.6688C12.6533 20.6688 10.3393 18.3555 10.3393 15.5031C10.3393 12.6507 12.6533 10.3374 15.506 10.3374C18.359 10.3374 20.6727 12.6507 20.6727 15.5031C20.6727 18.3555 18.359 20.6688 15.506 20.6688Z" fill="white"/>
<path d="M25.6457 7.22472C25.6457 8.25138 24.8131 9.08383 23.786 9.08383C22.7591 9.08383 21.9265 8.25138 21.9265 7.22472C21.9265 6.19782 22.7591 5.36561 23.786 5.36561C24.8131 5.36561 25.6457 6.19782 25.6457 7.22472Z" fill="white"/>
</svg>
