<svg width="28" height="28" viewBox="0 0 28 28" fill="none" xmlns="http://www.w3.org/2000/svg">
<path fill-rule="evenodd" clip-rule="evenodd" d="M13.9965 0H14.0035C21.7227 0 28 6.28075 28 14C28 21.7192 21.7227 28 14.0035 28C11.1562 28 8.5155 27.153 6.30175 25.6865L0.9205 27.4067L2.66525 22.2057C0.987 19.901 0 17.0625 0 14C0 6.279 6.27725 0 13.9965 0ZM19.4022 21.7455C20.4715 21.5145 21.812 20.7235 22.1497 19.7697C22.4875 18.8142 22.4875 18.0005 22.3895 17.8272C22.3103 17.6898 22.1232 17.5997 21.8439 17.4652C21.7712 17.4302 21.6922 17.3921 21.6072 17.3495C21.196 17.1447 19.1957 16.156 18.8177 16.0247C18.4467 15.8847 18.0932 15.9337 17.8132 16.3292C17.76 16.4038 17.7069 16.4785 17.654 16.5529C17.3162 17.0279 16.9904 17.4862 16.7195 17.7782C16.4727 18.0407 16.0702 18.074 15.7325 17.934C15.6957 17.9186 15.6535 17.9016 15.6062 17.8825C15.0714 17.6665 13.8853 17.1875 12.4495 15.9092C11.2385 14.8312 10.416 13.489 10.178 13.0865C9.94432 12.6827 10.1459 12.446 10.3322 12.2271C10.3356 12.2231 10.3391 12.219 10.3425 12.215C10.4626 12.0664 10.5792 11.9427 10.6963 11.8183C10.7805 11.7288 10.8651 11.6391 10.9515 11.5395C10.9643 11.5247 10.9768 11.5104 10.989 11.4964C11.1724 11.2855 11.2817 11.1598 11.4047 10.8972C11.5447 10.626 11.445 10.346 11.3452 10.1395C11.2766 9.99488 10.8526 8.96619 10.4887 8.08313C10.3329 7.70528 10.1882 7.3541 10.087 7.11025C9.81575 6.461 9.60925 6.4365 9.198 6.419C9.1854 6.41837 9.17267 6.41773 9.15981 6.41707C9.02982 6.4105 8.88665 6.40325 8.729 6.40325C8.1935 6.40325 7.63525 6.56075 7.2975 6.9055C7.28569 6.91755 7.27339 6.93007 7.26062 6.94305C6.82853 7.38249 5.866 8.3614 5.866 10.3127C5.866 12.2679 7.25323 14.16 7.5099 14.5101C7.51698 14.5197 7.52319 14.5282 7.5285 14.5355C7.54394 14.5558 7.57305 14.5979 7.61542 14.6593C8.13951 15.4183 10.6922 19.115 14.4987 20.692C17.7152 22.0255 18.6707 21.9012 19.4022 21.7455Z" fill="white"/>
</svg>
